<svg width="129" height="54" fill="none" xmlns="http://www.w3.org/2000/svg"><path d="M105.81 53.2079H22.2912C9.97918 53.2079 0 41.298 0 26.604C0 11.9099 9.97918 0 22.2912 0H105.81C118.122 0 128.101 11.9099 128.101 26.604C128.109 41.2883 118.122 53.2079 105.81 53.2079Z" fill="#B2FCE4"/><path d="M109.188 20.2429L106.385 18.3288L103.542 16.3857C101.663 15.1 99.314 16.7144 99.314 19.3052V19.7402C99.314 19.9819 99.4193 20.2042 99.5975 20.3202L100.918 21.2193C101.282 21.4706 101.736 21.1516 101.736 20.6489V19.6146C101.736 19.1022 102.198 18.7832 102.57 19.0345L105.162 20.8133L107.746 22.5823C108.119 22.8337 108.119 23.4814 107.746 23.7327L105.162 25.5018L102.57 27.2805C102.198 27.5319 101.736 27.2129 101.736 26.7005V26.1882C101.736 23.5974 99.3869 21.9733 97.5077 23.2687L94.6646 25.2118L91.862 27.1259C89.9747 28.4213 89.9747 31.6791 91.862 32.9745L94.6646 34.8885L97.5077 36.8316C99.3869 38.1173 101.736 36.5029 101.736 33.9122V33.4771C101.736 33.2355 101.631 33.0131 101.452 32.8971L100.132 31.9981C99.7676 31.7467 99.314 32.0658 99.314 32.5684V33.6028C99.314 34.1152 98.8523 34.4342 98.4797 34.1828L95.8877 32.4041L93.3038 30.635C92.9312 30.3837 92.9312 29.736 93.3038 29.4846L95.8877 27.7156L98.4797 25.9368C98.8523 25.6855 99.314 26.0045 99.314 26.5168V27.0292C99.314 29.62 101.663 31.244 103.542 29.9487L106.385 28.0056L109.188 26.0915C111.075 24.7864 111.075 21.5383 109.188 20.2429Z" fill="#000"/><path d="M90.8009 20.8809L84.2399 37.054H81.5183L83.9726 31.012L80.1089 20.8809H82.9034L85.382 27.6672L88.0874 20.8809H90.8009Z" fill="#000"/><path d="M25.1991 26.6231C25.1991 24.6896 24.0246 23.3362 22.5828 23.3362C21.141 23.3362 19.9665 24.7186 19.9665 26.6231C19.9665 28.5082 21.141 29.9099 22.5828 29.9099C24.0246 29.9099 25.1991 28.5565 25.1991 26.6231ZM25.2234 32.3654V30.8766C24.5106 31.911 23.4495 32.5491 22.1859 32.5491C19.5453 32.5491 17.5446 30.0259 17.5446 26.6231C17.5446 23.2492 19.6263 20.6777 22.2426 20.6777C23.4738 20.6777 24.5106 21.3254 25.2234 22.3308V20.8807H27.5885V32.3654H25.2234Z" fill="#000"/><path d="M39.0905 29.8133C38.2643 29.8133 38.0295 29.4459 38.0295 28.4792V23.3846H39.5522V20.8808H38.0295V18.0774H35.6076V20.8808H32.481V19.7401C32.481 18.7734 32.7888 18.4061 33.6393 18.4061H34.1739V16.1826H33.0075C31.0068 16.1826 30.0591 16.9657 30.0591 19.3534V20.8905H28.7145V23.3846H30.0591V32.3654H32.481V23.3846H35.6076V29.0109C35.6076 31.3503 36.3609 32.3654 38.321 32.3654H39.5684V29.8133H39.0905Z" fill="#000"/><path d="M47.7901 25.5886C47.62 24.0998 46.5994 23.2008 45.4006 23.2008C44.2099 23.2008 43.2217 24.0708 42.9787 25.5886H47.7901ZM42.9544 27.377C43.1245 29.0784 44.1451 30.0452 45.4411 30.0452C46.4617 30.0452 47.2474 29.4748 47.7091 28.5564H50.1958C49.6207 30.9925 47.7901 32.549 45.3844 32.549C42.4765 32.549 40.4353 30.1128 40.4353 26.6423C40.4353 23.1718 42.5899 20.668 45.4411 20.668C48.3085 20.668 50.3902 23.1911 50.3902 26.6423C50.3902 26.8936 50.374 27.145 50.3335 27.377H42.9544Z" fill="#000"/><path d="M65.8124 26.6229C65.8124 24.7668 64.6379 23.3361 63.1961 23.3361C61.7544 23.3361 60.5799 24.7185 60.5799 26.6229C60.5799 28.508 61.7544 29.9097 63.1961 29.9097C64.6379 29.9097 65.8124 28.4887 65.8124 26.6229ZM58.1904 37.0537V20.8806H60.5556V22.3694C61.2684 21.3157 62.3295 20.668 63.593 20.668C66.1931 20.668 68.2343 23.2201 68.2343 26.5939C68.2343 29.9677 66.1526 32.5392 63.5363 32.5392C62.3214 32.5392 61.3251 31.9688 60.6285 31.0021V37.0441H58.1904V37.0537Z" fill="#000"/><path d="M76.7637 26.6231C76.7637 24.6896 75.5892 23.3362 74.1474 23.3362C72.7056 23.3362 71.5311 24.7186 71.5311 26.6231C71.5311 28.5082 72.7056 29.9099 74.1474 29.9099C75.5892 29.9099 76.7637 28.5565 76.7637 26.6231ZM76.788 32.3654V30.8766C76.0752 31.911 75.0141 32.5491 73.7505 32.5491C71.1099 32.5491 69.1091 30.0259 69.1091 26.6231C69.1091 23.2492 71.1909 20.6777 73.8072 20.6777C75.0384 20.6777 76.0752 21.3254 76.788 22.3308V20.8807H79.1533V32.3654H76.788Z" fill="#000"/><path d="M53.9217 22.002C53.9217 22.002 54.5211 20.668 56.0034 20.668C56.6352 20.668 57.0403 20.929 57.0403 20.929V23.8581C57.0403 23.8581 56.1492 23.2008 55.3311 23.3361C54.513 23.4714 53.9946 24.3608 53.9946 25.5595V32.3555H51.5483V20.8806H53.9136V22.002H53.9217Z" fill="#000"/></svg>