<svg width="24" height="24" fill="none" xmlns="http://www.w3.org/2000/svg"><path d="M21.08 7.814A1.991 1.991 0 0 0 19.09 6H17V5c0-2.757-2.243-5-5-5S7 2.243 7 5v1H4.91a1.99 1.99 0 0 0-1.99 1.814L1.657 21.267a2.506 2.506 0 0 0 .64 1.916c.473.52 1.147.817 1.849.817h15.705a2.504 2.504 0 0 0 2.489-2.733l-1.26-13.453ZM9 5c0-1.655 1.345-3 3-3 1.654 0 3 1.345 3 3v1H9V5ZM7 8v2h2V8h6v2h2V8h2.09l.843 9H4.067l.843-9H7Zm13.222 13.837a.496.496 0 0 1-.37.163H4.148a.496.496 0 0 1-.37-.163.496.496 0 0 1-.128-.384L3.88 19H20.12l.23 2.453a.495.495 0 0 1-.128.384Z" fill="#1F1F24"/></svg>