<svg width="75" height="75" xmlns="http://www.w3.org/2000/svg" xmlns:xlink="http://www.w3.org/1999/xlink"><defs><path id="a" d="M0 0h75v75H0z"/></defs><g fill="none" fill-rule="evenodd"><path fill="#1F1F24" d="M16 40h44v-3H16z"/><g><mask id="b" fill="#fff"><use xlink:href="#a"/></mask><path d="M65.625 71.875h-6.25V50a3.127 3.127 0 0 0-3.125-3.125h-12.5A3.127 3.127 0 0 0 40.625 50v21.875h-6.25V50a3.127 3.127 0 0 0-3.125-3.125h-12.5A3.127 3.127 0 0 0 15.625 50v21.875h-6.25V25h56.25v46.875Zm-21.875 0h12.5V50h-12.5v21.875Zm-25 0h12.5V50h-12.5v21.875Zm-15.625-50v-6.25h68.75l.002 6.25H3.125Zm11.49-18.75h45.77l3.75 9.375h-53.27l3.75-9.375ZM71.876 25A3.128 3.128 0 0 0 75 21.875v-6.25a3.128 3.128 0 0 0-3.125-3.125H67.5L63.286 1.964A3.126 3.126 0 0 0 60.384 0H14.616a3.126 3.126 0 0 0-2.902 1.964L7.5 12.5H3.125A3.128 3.128 0 0 0 0 15.625v6.25A3.128 3.128 0 0 0 3.125 25H6.25v46.875H0V75h75v-3.125h-6.25V25h3.125Z" fill="#1F1F24" mask="url(#b)"/></g></g></svg>