<svg version="1.1" id="espanso" xmlns="http://www.w3.org/2000/svg" x="0" y="0" viewBox="0 0 48 48" style="enable-background:new 0 0 48 48" xml:space="preserve"><style>.st0{display:none;fill:none}</style><path d="m47.653 26.348-4.695-7.304A2.306 2.306 0 0 0 41.019 18H34V9.094a2 2 0 0 0-2-2H20v2h12V36H11.858c-.447-1.72-2-3-3.858-3s-3.411 1.28-3.858 3H2V26c0-.766.006-2.094.758-3.862A6.98 6.98 0 0 0 7 23.576a6.979 6.979 0 0 0 4.95-2.047c4.484-4.484 4.536-13.072 4.536-13.435a.997.997 0 0 0-1-1c-.363 0-8.951.052-13.435 4.536-2.434 2.433-2.691 6.224-.785 8.953C.003 23.077 0 24.968 0 26v10a2 2 0 0 0 2 2h2.142c.447 1.72 2 3 3.858 3s3.411-1.28 3.858-3h24.284c.447 1.72 2 3 3.858 3s3.411-1.28 3.858-3h1.856C46.977 38 48 37.005 48 35.778v-8.252c0-.416-.12-.824-.347-1.178zM3.464 13.043C6.518 9.99 12.122 9.297 14.44 9.14c-.155 2.317-.845 7.915-3.905 10.975-1.868 1.868-4.849 1.926-6.81.213.683-1.068 1.628-2.244 2.962-3.52l-1.382-1.445c-1.208 1.155-2.13 2.245-2.85 3.266-.826-1.841-.499-4.077 1.009-5.586zM10 37c0 1.103-.897 2-2 2s-2-.897-2-2 .897-2 2-2 2 .897 2 2zm30 2c-1.103 0-2-.897-2-2s.897-2 2-2 2 .897 2 2-.897 2-2 2zm6-3.222c0 .107-.115.222-.286.222h-1.856c-.447-1.72-2-3-3.858-3s-3.411 1.28-3.858 3H34V20h7.019c.106 0 .207.049.256.126l4.695 7.304c.02.031.03.063.03.096v8.252z"/></svg>