<svg width="18" height="18" viewBox="0 0 18 18" fill="none" xmlns="http://www.w3.org/2000/svg">
    <g clip-path="url(#isfovh088a)">
        <path d="M12.975 2.587a3.55 3.55 0 0 1 2.513 1.05c1.387 1.388 1.387 3.638 0 4.988l-.413.412L9 15.113 2.925 9.038l-.375-.412c-1.387-1.388-1.387-3.638 0-4.987a3.55 3.55 0 0 1 2.513-1.05 3.55 3.55 0 0 1 2.512 1.05l.412.375 1.05 1.012 1.05-1.013.413-.374c.637-.675 1.5-1.05 2.475-1.05zm0-1.5A5.055 5.055 0 0 0 9.412 2.55L9 2.925l-.412-.375a5.055 5.055 0 0 0-3.563-1.462c-1.275 0-2.55.487-3.563 1.462-1.95 1.95-1.95 5.175 0 7.125l.413.412 6.6 6.6a.74.74 0 0 0 .525.226.74.74 0 0 0 .525-.226l6.6-6.6.413-.412c1.95-1.95 1.95-5.175 0-7.125-1.013-.975-2.288-1.462-3.563-1.462z" fill="#1F1F24"/>
    </g>
    <defs>
        <clipPath id="isfovh088a">
            <path fill="#fff" d="M0 0h18v18H0z"/>
        </clipPath>
    </defs>
</svg>
