<svg width="20" height="20" fill="none" xmlns="http://www.w3.org/2000/svg"><g clip-path="url(#a)"><path d="M0 0h20v20H0z"/><path d="M14.417 2.875c1.041 0 2.041.417 2.791 1.167 1.542 1.541 1.542 4.041 0 5.541l-.458.459-6.75 6.75-6.75-6.75-.417-.459c-1.541-1.541-1.541-4.041 0-5.541a3.944 3.944 0 0 1 2.792-1.167c1.042 0 2.042.417 2.792 1.167l.458.416 1.167 1.125 1.166-1.125.459-.416c.708-.75 1.666-1.167 2.75-1.167Zm0-1.667a5.617 5.617 0 0 0-3.959 1.625L10 3.25l-.458-.417a5.617 5.617 0 0 0-3.959-1.625c-1.416 0-2.833.542-3.958 1.625-2.167 2.167-2.167 5.75 0 7.917l.458.458 7.334 7.334c.166.166.375.25.583.25a.822.822 0 0 0 .583-.25l7.334-7.334.458-.458c2.167-2.167 2.167-5.75 0-7.917-1.125-1.083-2.542-1.625-3.958-1.625Z" fill="#000"/></g><defs><clipPath id="a"><path fill="#fff" d="M0 0h20v20H0z"/></clipPath></defs></svg>