<svg xmlns="http://www.w3.org/2000/svg" width="26" height="26"><g fill="#1F1F24" fill-rule="evenodd"><path d="M13 0C9.47 0 9.026.015 7.64.078 6.257.141 5.31.361 4.486.683a6.38 6.38 0 0 0-2.303 1.499 6.371 6.371 0 0 0-1.5 2.303C.362 5.312.142 6.256.079 7.64.015 9.026 0 9.47 0 13c0 3.53.015 3.973.078 5.36.063 1.384.283 2.329.605 3.155a6.38 6.38 0 0 0 1.499 2.303 6.38 6.38 0 0 0 2.303 1.5c.826.321 1.771.541 3.156.604C9.026 25.985 9.47 26 13 26c3.53 0 3.973-.015 5.358-.078 1.385-.063 2.33-.283 3.156-.604a6.377 6.377 0 0 0 2.302-1.5 6.37 6.37 0 0 0 1.5-2.303c.322-.826.541-1.771.605-3.156.063-1.386.078-1.828.078-5.359 0-3.53-.015-3.974-.078-5.36-.064-1.384-.283-2.328-.604-3.155a6.36 6.36 0 0 0-1.5-2.303 6.377 6.377 0 0 0-2.303-1.5c-.824-.32-1.77-.54-3.154-.603C16.974.015 16.531 0 13 0m0 2.342c3.471 0 3.883.013 5.253.076 1.268.058 1.956.27 2.414.448a4.02 4.02 0 0 1 1.495.972c.455.455.737.888.972 1.495.178.459.39 1.147.448 2.414.062 1.37.076 1.782.076 5.253s-.014 3.882-.076 5.253c-.057 1.268-.27 1.956-.448 2.414a4.019 4.019 0 0 1-.972 1.495 4.01 4.01 0 0 1-1.495.972c-.458.178-1.146.39-2.414.448-1.37.063-1.782.076-5.253.076-3.47 0-3.883-.013-5.254-.076-1.268-.058-1.954-.27-2.413-.448a4.01 4.01 0 0 1-1.495-.972 4.019 4.019 0 0 1-.971-1.495c-.18-.458-.391-1.146-.449-2.414-.063-1.371-.076-1.782-.076-5.253 0-3.47.013-3.883.076-5.253.058-1.267.269-1.955.449-2.414a4.01 4.01 0 0 1 .971-1.495 4.026 4.026 0 0 1 1.495-.972c.459-.178 1.145-.39 2.413-.448 1.371-.063 1.783-.076 5.254-.076"/><path d="M13 17.333a4.334 4.334 0 1 1 0-8.667 4.334 4.334 0 0 1 0 8.667m0-11.008a6.676 6.676 0 1 0 0 13.351 6.676 6.676 0 0 0 0-13.351m8.5-.265a1.56 1.56 0 1 1-3.121 0 1.56 1.56 0 0 1 3.12 0"/></g></svg>