<svg version="1.1" id="espanso" xmlns="http://www.w3.org/2000/svg" x="0" y="0" viewBox="0 0 48 48" style="enable-background:new 0 0 48 48" xml:space="preserve"><style>.st0{display:none}.st1{display:inline;fill:none}</style><path d="M42 16h-8v-6c0-5.794-4.206-10-10-10S14 4.206 14 10v6H6a2 2 0 0 0-2 2v28a2 2 0 0 0 2 2h36a2 2 0 0 0 2-2V18a2 2 0 0 0-2-2zm-26-6c0-4.71 3.29-8 8-8s8 3.29 8 8v6H16v-6zm26 36H6V18h36v28z"/><path d="M24 36c2.206 0 4-1.794 4-4s-1.794-4-4-4-4 1.794-4 4 1.794 4 4 4zm0-6c1.103 0 2 .897 2 2s-.897 2-2 2-2-.897-2-2 .897-2 2-2z"/></svg>