<svg width="12" height="16" fill="none" xmlns="http://www.w3.org/2000/svg"><mask id="a" fill="#fff"><path d="m9.333 15.252-5.92-5.329a.998.998 0 0 0-.669-.257H.667V6.333h2.077a.997.997 0 0 0 .669-.257L9.333.748v3.918H10V.748A.66.66 0 0 0 9.605.14a.659.659 0 0 0-.718.113l-5.92 5.329a.333.333 0 0 1-.223.085H.667A.667.667 0 0 0 0 6.333v3.333c0 .368.299.667.667.667h2.077c.083 0 .162.03.223.085l5.92 5.329a.66.66 0 0 0 .717.114.66.66 0 0 0 .396-.61v-3.918h-.667v3.918Z"/></mask><path d="m9.333 15.252-5.92-5.329a.998.998 0 0 0-.669-.257H.667V6.333h2.077a.997.997 0 0 0 .669-.257L9.333.748v3.918H10V.748A.66.66 0 0 0 9.605.14a.659.659 0 0 0-.718.113l-5.92 5.329a.333.333 0 0 1-.223.085H.667A.667.667 0 0 0 0 6.333v3.333c0 .368.299.667.667.667h2.077c.083 0 .162.03.223.085l5.92 5.329a.66.66 0 0 0 .717.114.66.66 0 0 0 .396-.61v-3.918h-.667v3.918Z" fill="#fff"/><path d="m9.333 15.252-.669.743 1.67 1.502v-2.245h-1Zm-5.92-5.329-.67.743h.001l.669-.743ZM.667 9.666h-1v1h1v-1Zm0-3.333v-1h-1v1h1Zm2.746-.257-.67-.743.67.743ZM9.333.748h1v-2.245L8.664.005l.67.743Zm0 3.918h-1v1h1v-1Zm.667 0v1h1v-1h-1ZM8.887.252 8.22-.49l.668.743Zm-5.92 5.329.668.744h.001l-.669-.744Zm0 4.837.669-.743-.001-.001-.668.745Zm5.92 5.329.67-.743-.67.743Zm.717.114-.406-.914h-.002l.408.914ZM10 11.332h1v-1h-1v1Zm-.667 0v-1h-1v1h1Zm.67 3.175L4.081 9.18l-1.338 1.486 5.92 5.329 1.338-1.487ZM4.082 9.18a1.998 1.998 0 0 0-1.339-.514v2L4.082 9.18Zm-1.339-.514H.667v2h2.077v-2Zm-1.077 1V6.333h-2v3.333h2Zm-1-2.333h2.077v-2H.667v2Zm2.077 0c.494 0 .97-.182 1.338-.514l-1.34-1.485h.002c0-.001 0 0 0 0v2Zm1.338-.513 5.92-5.329L8.664.005l-5.92 5.328L4.082 6.82ZM8.333.748v3.918h2V.748h-2Zm1 4.918H10v-2h-.667v2Zm1.667-1V.748H9v3.918h2Zm0-3.918a1.66 1.66 0 0 0-.988-1.522l-.815 1.826A.335.335 0 0 1 9.055.93.335.335 0 0 1 9 .749h2Zm-.988-1.522a1.659 1.659 0 0 0-1.793.283L9.556.996a.335.335 0 0 1-.17.08.336.336 0 0 1-.189-.024l.815-1.826Zm-1.794.283-5.92 5.329 1.338 1.486L9.556.996 8.218-.491ZM2.3 4.836a.667.667 0 0 1 .445-.17v2c.33 0 .647-.122.891-.34L2.3 4.835Zm.445-.17H.667v2h2.077v-2Zm-2.077 0C-.253 4.666-1 5.413-1 6.333h2a.333.333 0 0 1-.333.333v-2ZM-1 6.333v3.333h2V6.333h-2Zm0 3.333c0 .92.747 1.667 1.667 1.667v-2c.184 0 .333.149.333.333h-2Zm1.667 1.667h2.077v-2H.667v2Zm2.077 0a.667.667 0 0 1-.445-.17l1.336-1.489a1.333 1.333 0 0 0-.891-.34v2Zm-.446-.171 5.92 5.328 1.338-1.486-5.92-5.329-1.338 1.487Zm5.92 5.327c.308.278.703.43 1.113.43v-2a.34.34 0 0 1 .226.085l-1.34 1.485Zm1.113.43c.233 0 .465-.049.682-.146l-.817-1.825a.332.332 0 0 1 .135-.029v2Zm.68-.145c.605-.27.989-.86.989-1.523H9c0-.058.017-.122.055-.18.038-.059.09-.1.143-.124l.813 1.827ZM11 15.251v-3.918H9v3.918h2Zm-1-4.918h-.667v2H10v-2Zm-1.667 1v3.918h2v-3.918h-2Z" fill="#fff" mask="url(#a)"/><path d="m11.903 6.235-.471-.47-1.765 1.763-1.764-1.764-.471.471L9.196 8 7.432 9.764l.471.472L9.667 8.47l1.765 1.764.471-.47L10.139 8l1.764-1.765Z" fill="#fff"/></svg>