<svg width="53" height="22" fill="none" xmlns="http://www.w3.org/2000/svg"><path d="M48.0414 0H4.04083C1.80914 0 0 1.70243 0 3.80248V18.1975C0 20.2976 1.80914 22 4.04083 22H48.0414C50.2731 22 52.0822 20.2976 52.0822 18.1975V3.80248C52.0822 1.70243 50.2731 0 48.0414 0Z" fill="#FFC439"/><g clip-path="url(#clip0_359_7560)"><mask id="mask0_359_7560" style="mask-type:luminance" maskUnits="userSpaceOnUse" x="3" y="5" width="46" height="13"><path d="M3.54126 5.53906H48.4589V17.4011H3.54126V5.53906Z" fill="#fff"/></mask><g mask="url(#mask0_359_7560)"><path d="M19.9281 12.7282C20.5806 12.7277 21.2114 12.4949 21.7067 12.0718C22.2021 11.6488 22.5293 11.0633 22.6294 10.421C22.8404 9.08228 21.7903 7.91359 20.3023 7.91359H17.9041C17.8591 7.91301 17.8154 7.92865 17.7811 7.95763C17.7468 7.98661 17.7242 8.02697 17.7174 8.07127L16.6486 14.829C16.6447 14.8536 16.6462 14.8789 16.6531 14.9029C16.6599 14.9269 16.6719 14.9492 16.6882 14.9682C16.7045 14.9872 16.7247 15.0025 16.7475 15.013C16.7703 15.0234 16.795 15.0289 16.8201 15.0289H18.0892C18.1341 15.0294 18.1776 15.0137 18.2118 14.9847C18.246 14.9558 18.2686 14.9155 18.2753 14.8713L18.5898 12.8862C18.5965 12.8419 18.6191 12.8015 18.6533 12.7725C18.6876 12.7434 18.7312 12.7277 18.7762 12.7282H19.9281ZM20.9901 10.3601C20.9117 10.855 20.5277 11.2197 19.7928 11.2197H18.8528L19.1377 9.41919H20.0607C20.821 9.42081 21.0681 9.86742 20.9901 10.3615V10.3601ZM28.1277 10.0421H26.9228C26.8778 10.0416 26.8342 10.0572 26.7999 10.0862C26.7656 10.1152 26.7429 10.1555 26.7361 10.1998L26.6971 10.4488C26.6971 10.4488 25.7617 9.43132 24.1062 10.1186C23.1565 10.5124 22.7008 11.3261 22.5071 11.9218C22.5071 11.9218 21.8909 13.7325 23.2837 14.7295C23.2837 14.7295 24.5746 15.6879 26.0288 14.6702L26.0036 14.829C25.9997 14.8536 26.0012 14.8789 26.008 14.9029C26.0149 14.927 26.0268 14.9493 26.0431 14.9683C26.0594 14.9873 26.0797 15.0026 26.1025 15.013C26.1253 15.0235 26.1501 15.0289 26.1752 15.0289H27.3795C27.4245 15.0295 27.4682 15.0139 27.5025 14.9849C27.5368 14.9559 27.5595 14.9156 27.5663 14.8713L28.299 10.2421C28.3029 10.2174 28.3013 10.1922 28.2945 10.1681C28.2876 10.1441 28.2757 10.1218 28.2594 10.1028C28.2431 10.0838 28.2229 10.0685 28.2001 10.0581C28.1773 10.0476 28.1528 10.0421 28.1277 10.0421ZM26.3562 12.6005C26.309 12.923 26.1461 13.2176 25.8975 13.4295C25.6489 13.6415 25.3315 13.7564 25.0043 13.753C24.8762 13.7544 24.7486 13.7358 24.6263 13.6977C24.1068 13.5317 23.8105 13.0341 23.8957 12.4951C23.9429 12.1717 24.1066 11.8764 24.3562 11.6643C24.6058 11.4522 24.9244 11.3377 25.2525 11.3423C25.3807 11.3409 25.5084 11.3598 25.6307 11.3978C26.1484 11.5633 26.4428 12.0609 26.3575 12.6005H26.3562Z" fill="#003087"/><path d="M37.276 12.7282C37.9288 12.728 38.5601 12.4954 39.0559 12.0723C39.5517 11.6493 39.8793 11.0636 39.9797 10.421C40.1905 9.08227 39.1406 7.91358 37.6521 7.91358H35.2547C35.2098 7.91313 35.1662 7.92882 35.1319 7.95778C35.0977 7.98674 35.0751 8.02703 35.0682 8.07126L33.9962 14.8308C33.99 14.8681 33.9964 14.9063 34.0142 14.9395C34.0321 14.9728 34.0605 14.9993 34.0949 15.0149C34.1177 15.0255 34.1426 15.031 34.1677 15.0311H35.4371C35.482 15.0315 35.5256 15.0158 35.5599 14.9868C35.5941 14.9578 35.6167 14.9174 35.6235 14.8731L35.9382 12.8881C35.9448 12.8437 35.9674 12.8033 36.0017 12.7743C36.036 12.7452 36.0796 12.7295 36.1246 12.7301L37.276 12.7282ZM38.338 10.3601C38.2596 10.855 37.8756 11.2197 37.1404 11.2197H36.2007L36.4859 9.41919H37.4088C38.1686 9.4208 38.4162 9.86742 38.338 10.3615V10.3601ZM45.4753 10.0421H44.2718C44.2268 10.0416 44.1833 10.0573 44.149 10.0863C44.1148 10.1152 44.0922 10.1555 44.0853 10.1997L44.0458 10.4488C44.0458 10.4488 43.1107 9.43131 41.4552 10.1186C40.5057 10.5124 40.0498 11.3261 39.8558 11.9218C39.8558 11.9218 39.2399 13.7325 40.6323 14.7295C40.6323 14.7295 41.9236 15.6879 43.3777 14.6702L43.3526 14.8289C43.3464 14.8662 43.3528 14.9044 43.3706 14.9377C43.3885 14.9709 43.4169 14.9974 43.4513 15.013C43.4741 15.0238 43.499 15.0292 43.5241 15.0292H44.7285C44.7735 15.0299 44.8173 15.0142 44.8516 14.9852C44.8859 14.9561 44.9084 14.9156 44.9149 14.8713L45.648 10.2421C45.6516 10.2173 45.6499 10.192 45.643 10.168C45.6361 10.1439 45.6241 10.1216 45.6079 10.1024C45.5917 10.0833 45.5713 10.0679 45.5484 10.0575C45.5255 10.047 45.5005 10.0418 45.4753 10.0421ZM43.7041 12.6005C43.6575 12.9232 43.4946 13.2181 43.2459 13.4302C42.9972 13.6422 42.6796 13.757 42.3522 13.753C42.2239 13.7545 42.0961 13.7358 41.9737 13.6977C41.4539 13.5317 41.1573 13.0341 41.2425 12.4951C41.2896 12.1725 41.4526 11.8779 41.7012 11.6659C41.9498 11.4539 42.2671 11.3389 42.5944 11.3423C42.7229 11.3409 42.8506 11.3595 42.9729 11.3978C43.496 11.5633 43.7912 12.0609 43.7054 12.6005H43.7041Z" fill="#0070E0"/><path d="M32.5497 10.1566L31.0975 12.5983L30.3607 10.1746C30.3491 10.1362 30.3254 10.1025 30.293 10.0786C30.2606 10.0547 30.2213 10.0418 30.181 10.042H28.8708C28.8482 10.0416 28.8259 10.0466 28.8057 10.0567C28.7855 10.0668 28.768 10.0816 28.7548 10.0998C28.7416 10.1181 28.7331 10.1393 28.7299 10.1615C28.7267 10.1838 28.729 10.2065 28.7366 10.2277L30.0571 14.31L28.863 16.234C28.8495 16.2551 28.842 16.2795 28.8412 16.3046C28.8405 16.3297 28.8466 16.3545 28.8589 16.3764C28.8711 16.3983 28.8891 16.4165 28.9108 16.4291C28.9326 16.4417 28.9574 16.4482 28.9826 16.448H30.3942C30.4346 16.4482 30.4743 16.4379 30.5095 16.4181C30.5446 16.3984 30.574 16.3698 30.5947 16.3353L34.2834 10.2568C34.2967 10.2356 34.304 10.2112 34.3045 10.1862C34.3051 10.1612 34.2988 10.1366 34.2865 10.1148C34.2741 10.093 34.2561 10.075 34.2343 10.0626C34.2125 10.0501 34.1878 10.0438 34.1627 10.0442H32.7516C32.711 10.0437 32.671 10.0538 32.6356 10.0736C32.6002 10.0933 32.5706 10.1219 32.5497 10.1566Z" fill="#003087"/><path d="M46.8304 8.06931L45.7584 14.8289C45.7522 14.8661 45.7586 14.9043 45.7764 14.9376C45.7943 14.9709 45.8227 14.9974 45.8571 15.013C45.8799 15.0238 45.9048 15.0291 45.9299 15.0291H47.1987C47.2437 15.0297 47.2874 15.014 47.3217 14.985C47.3559 14.9559 47.3785 14.9155 47.3852 14.8712L48.4575 8.11162C48.4615 8.08693 48.46 8.06167 48.4532 8.0376C48.4464 8.01353 48.4344 7.99123 48.418 7.97228C48.4016 7.95331 48.3814 7.93807 48.3586 7.9276C48.3358 7.91714 48.311 7.91169 48.2859 7.91163H47.0169C46.972 7.91117 46.9284 7.92687 46.8941 7.95583C46.8599 7.98479 46.8373 8.02508 46.8304 8.06931Z" fill="#0070E0"/><path d="M13.0513 10.9996C12.7791 12.5454 11.513 13.7138 9.85161 13.7138H8.79686C8.58174 13.7138 8.365 13.9122 8.33064 14.1316L7.86874 17.052C7.84196 17.2183 7.76376 17.2735 7.59464 17.2735H5.89805C5.7265 17.2735 5.68591 17.2164 5.71161 17.0479L5.90644 15.0283L3.86999 14.9235C3.69871 14.9235 3.63674 14.8305 3.6611 14.6601L5.05057 5.88421C5.07736 5.71791 5.18126 5.64648 5.34984 5.64648H8.87371C10.57 5.64648 11.6432 6.78391 11.7744 8.25878C12.7837 8.938 13.2556 9.84174 13.0516 10.9994L13.0513 10.9996Z" fill="#001C64"/><path d="M6.42269 11.7583L5.90668 15.0285L5.58035 17.0802C5.57429 17.1197 5.57685 17.1601 5.58786 17.1986C5.59887 17.2371 5.61807 17.2728 5.64415 17.3032C5.67024 17.3336 5.70259 17.3581 5.73902 17.375C5.77545 17.3918 5.8151 17.4007 5.85527 17.4009H7.6471C7.72889 17.4008 7.80796 17.3717 7.87011 17.3187C7.93226 17.2658 7.9734 17.1925 7.98615 17.112L8.45779 14.131C8.4706 14.0505 8.51177 13.9773 8.57391 13.9244C8.63605 13.8715 8.71509 13.8424 8.79683 13.8423H9.85159C10.6553 13.8413 11.4322 13.5542 12.0423 13.033C12.6523 12.5118 13.0553 11.7906 13.1787 10.9996C13.3614 9.83868 12.775 8.78185 11.7714 8.25977C11.7691 8.38345 11.7583 8.50683 11.7389 8.62902C11.6151 9.4197 11.2119 10.1403 10.602 10.6612C9.99202 11.182 9.21544 11.4688 8.41206 11.4699H6.76147C6.67978 11.4699 6.60078 11.499 6.53868 11.5518C6.47658 11.6047 6.43545 11.6779 6.42269 11.7583Z" fill="#0070E0"/><path d="M5.90647 15.0287H3.81996C3.7797 15.0285 3.73997 15.0197 3.70345 15.0028C3.66693 14.9859 3.6345 14.9614 3.60835 14.9309C3.58221 14.9004 3.56298 14.8647 3.55196 14.8261C3.54094 14.7876 3.53839 14.7471 3.5445 14.7074L4.95048 5.828C4.96312 5.74753 5.00419 5.6742 5.06631 5.62122C5.12842 5.56825 5.20748 5.53911 5.28925 5.53906H8.87184C10.5682 5.53906 11.8015 6.76866 11.7725 8.25836C11.3211 8.02635 10.8197 7.90729 10.3116 7.91148H7.32489C7.2431 7.9115 7.16399 7.94058 7.10179 7.99349C7.0396 8.0464 6.99839 8.11968 6.98557 8.20014L6.42275 11.7585L5.90647 15.0287Z" fill="#003087"/></g></g><defs><clipPath id="clip0_359_7560"><path fill="#fff" transform="translate(3 5)" d="M0 0H46V12.9375H0z"/></clipPath></defs></svg>