<svg xmlns="http://www.w3.org/2000/svg" width="26" height="26"><path fill="#1F1F24" fill-rule="evenodd" d="M0 13c0 5.323 3.203 9.897 7.784 11.907-.038-.908-.008-1.998.225-2.986.25-1.054 1.672-7.084 1.672-7.084s-.416-.83-.416-2.056c0-1.927 1.118-3.366 2.507-3.366 1.184 0 1.755.888 1.755 1.952 0 1.19-.758 2.968-1.148 4.614-.325 1.379.691 2.502 2.052 2.502 2.463 0 4.121-3.16 4.121-6.91 0-2.849-1.918-4.981-5.408-4.981-3.944 0-6.4 2.94-6.4 6.225 0 1.132.334 1.932.855 2.55.242.284.275.398.188.726-.061.236-.205.814-.264 1.042-.087.329-.353.446-.652.326-1.816-.743-2.661-2.732-2.661-4.967 0-3.693 3.112-8.122 9.29-8.122 4.964 0 8.23 3.592 8.23 7.448 0 5.1-2.835 8.91-7.015 8.91-1.403 0-2.722-.76-3.175-1.621 0 0-.755 2.994-.916 3.574-.273 1.001-.814 2.002-1.307 2.783 1.168.346 2.403.534 3.685.534C20.18 26 26 20.179 26 13c0-7.18-5.82-13-12.998-13C5.822 0 0 5.82 0 13z"/></svg>