<svg width="16" height="16" fill="none" xmlns="http://www.w3.org/2000/svg"><mask id="a" fill="#fff"><path d="M8 0C3.589 0 0 3.589 0 8s3.589 8 8 8 8-3.589 8-8-3.589-8-8-8Zm0 15.333C3.956 15.333.667 12.043.667 8 .667 3.956 3.957.667 8 .667c4.044 0 7.333 3.29 7.333 7.333 0 4.044-3.29 7.333-7.333 7.333Z"/></mask><path d="M8 0C3.589 0 0 3.589 0 8s3.589 8 8 8 8-3.589 8-8-3.589-8-8-8Zm0 15.333C3.956 15.333.667 12.043.667 8 .667 3.956 3.957.667 8 .667c4.044 0 7.333 3.29 7.333 7.333 0 4.044-3.29 7.333-7.333 7.333Z" fill="#fff"/><path d="M8-1C3.037-1-1 3.037-1 8h2c0-3.859 3.141-7 7-7v-2Zm-9 9c0 4.963 4.037 9 9 9v-2c-3.859 0-7-3.141-7-7h-2Zm9 9c4.963 0 9-4.037 9-9h-2c0 3.859-3.141 7-7 7v2Zm9-9c0-4.963-4.037-9-9-9v2c3.859 0 7 3.141 7 7h2Zm-9 6.333A6.342 6.342 0 0 1 1.667 8h-2c0 4.596 3.737 8.333 8.333 8.333v-2ZM1.667 8A6.342 6.342 0 0 1 8 1.667v-2C3.404-.333-.333 3.404-.333 8h2ZM8 1.667A6.342 6.342 0 0 1 14.333 8h2c0-4.596-3.737-8.333-8.333-8.333v2ZM14.333 8A6.341 6.341 0 0 1 8 14.333v2c4.596 0 8.333-3.737 8.333-8.333h-2Z" fill="#fff" mask="url(#a)"/><path d="M11.095 7.434 6.353 4.471a.667.667 0 0 0-1.02.565v5.927a.668.668 0 0 0 1.02.566l4.742-2.964a.666.666 0 0 0 0-1.13ZM6 10.964l.003-5.927L10.742 8 6 10.963Z" fill="#fff"/></svg>