<svg width="75" height="75" xmlns="http://www.w3.org/2000/svg" xmlns:xlink="http://www.w3.org/1999/xlink"><defs><path id="a" d="M0 0h28v28H0z"/></defs><g fill="none" fill-rule="evenodd"><path d="m37.5 27.95-15.07-5.932L54.08 9.557l15.07 5.933L37.5 27.95Zm-1.563 43.406L4.12 58.827a1.564 1.564 0 0 1-.994-1.463v-39.57L35.938 30.71v40.645Zm.993-68.102a1.546 1.546 0 0 1 1.14 0L49.794 7.87 18.18 20.316l.014.037L5.85 15.49 36.93 3.254Zm35.09 9.99L54.131 6.2l-.014-.034-.037.014L39.206.324a4.667 4.667 0 0 0-3.415 0L2.978 13.242A4.694 4.694 0 0 0 0 17.636v39.728a4.688 4.688 0 0 0 2.98 4.392l32.812 12.92a4.654 4.654 0 0 0 3.416-.002l5.033-1.982a20.532 20.532 0 0 1-1.582-2.753l-3.596 1.417V30.71l32.812-12.918v26.094A20.413 20.413 0 0 1 75 46.368V17.636a4.69 4.69 0 0 0-2.98-4.393Z" fill="#1F1F24"/><g transform="translate(47 47)"><mask id="b" fill="#fff"><use xlink:href="#a"/></mask><path d="M18.503 7.481v-.038H6.059l5.213-5.207L9.034 0 0 9.025l9.034 9.025 2.238-2.237-5.213-5.207h11.652c3.927 0 7.123 3.191 7.123 7.116 0 3.922-3.196 7.116-7.123 7.116h-5.54v3.163h5.54C23.384 28 28 23.39 28 17.722c0-5.4-4.193-9.833-9.497-10.24" fill="#1F1F24" mask="url(#b)"/></g></g></svg>