<svg xmlns="http://www.w3.org/2000/svg" width="16" height="16" fill="none"><g clip-path="url(#a)" fill="#1F1F24"><path d="M6 1.667v-1A.666.666 0 0 0 5.333 0H2.667A.666.666 0 0 0 2 .667v1H0v.666h2v1c0 .369.298.667.667.667h2.666A.666.666 0 0 0 6 3.333v-1h10v-.666H6Zm-.667 1.666H2.667V.667h2.666v2.666ZM10 6.667A.666.666 0 0 0 9.333 6H6.667A.666.666 0 0 0 6 6.667v1H0v.666h6v1c0 .369.298.667.667.667h2.666A.666.666 0 0 0 10 9.333v-1h6v-.666h-6v-1Zm-.667 2.666H6.667V6.667h2.666v2.666ZM14 12.667a.666.666 0 0 0-.667-.667h-2.666a.666.666 0 0 0-.667.667v1H0v.666h10v1c0 .369.298.667.667.667h2.666a.666.666 0 0 0 .667-.667v-1h2v-.666h-2v-1Zm-.667 2.666h-2.666v-2.666h2.666v2.666Z"/></g><defs><clipPath id="a"><path fill="#fff" d="M0 0h16v16H0z"/></clipPath></defs></svg>