<svg xmlns="http://www.w3.org/2000/svg" viewBox="0 0 100 100" style="enable-background:new 0 0 100 100" xml:space="preserve"><path d="M50 0C22.4 0 0 22.4 0 50s22.4 50 50 50 50-22.4 50-50S77.6 0 50 0zm22.9 72.1c-.9 1.5-2.8 1.9-4.3 1-11.7-7.2-26.5-8.8-43.9-4.8-1.7.4-3.3-.6-3.7-2.3-.4-1.7.7-3.3 2.3-3.7 19-4.4 35.4-2.5 48.6 5.6 1.5.8 1.9 2.7 1 4.2zM79 58.5c-1.1 1.8-3.5 2.4-5.4 1.3-13.4-8.3-33.8-10.7-49.7-5.8-2.1.6-4.2-.5-4.9-2.6-.6-2.1.5-4.2 2.6-4.9 18.2-5.5 40.7-2.8 56.2 6.6 1.8 1.2 2.4 3.6 1.2 5.4zm7-15.8c-1.3 2.2-4.2 3-6.4 1.6-16.1-9.6-42.7-10.5-58.1-5.8-2.5.8-5.1-.6-5.8-3.1-.8-2.5.6-5.1 3.1-5.8 17.7-5.4 47-4.3 65.6 6.7 2.2 1.3 2.9 4.2 1.6 6.4z"/></svg>