<svg width="18" height="18" viewBox="0 0 18 18" fill="none" xmlns="http://www.w3.org/2000/svg">
    <g clip-path="url(#kuf53e4c3a)" fill="#1F1F24">
        <path d="M18 3h-4.875V.814A.814.814 0 0 0 12.311 0H5.689a.814.814 0 0 0-.814.814V3H0v1.5h1.751l1.5 11.54A2.25 2.25 0 0 0 5.483 18h7.035a2.25 2.25 0 0 0 2.23-1.96l1.5-11.54H18V3zM6.375 1.5h5.25V3h-5.25V1.5zm6.886 14.347a.752.752 0 0 1-.743.653H5.482a.752.752 0 0 1-.743-.653L3.264 4.5h11.472l-1.475 11.347z"/>
        <path d="m10.877 5.939-.75 9 1.495.124.75-9-1.495-.124zM7.122 5.938l-1.495.124.75 9 1.494-.125-.75-9z"/>
    </g>
    <defs>
        <clipPath id="kuf53e4c3a">
            <path fill="#fff" d="M0 0h18v18H0z"/>
        </clipPath>
    </defs>
</svg>
