<svg xmlns="http://www.w3.org/2000/svg" viewBox="0 0 87.8 100" style="enable-background:new 0 0 87.8 100" xml:space="preserve"><path d="M44.7 100c-15-.1-26.4-5-34.1-14.6C3.7 76.8.2 64.9 0 50c.1-14.9 3.7-26.8 10.5-35.3C18.3 5 29.7.1 44.6 0 56 .1 65.6 3 73 8.7c7 5.4 11.9 13 14.6 22.8l-8.5 2.4C74.7 17.4 63 9 44.7 8.8c-12.1.1-21.3 3.9-27.2 11.3-5.7 7-8.5 17-8.6 29.9.1 12.9 3 22.9 8.6 29.8 6 7.4 15.1 11.2 27.3 11.3C55.7 91 63 88.5 69 82.6c6.9-6.7 6.7-15 4.5-20-1.3-3-3.6-5.4-6.8-7.3C65.8 61 64 65.6 61.2 69c-3.7 4.6-8.9 7.1-15.5 7.5-5 .3-9.8-.9-13.6-3.3-4.4-2.9-7-7.2-7.3-12.3-.3-5 1.7-9.5 5.5-12.8 3.7-3.2 8.8-5 14.9-5.4 4.5-.2 8.7 0 12.6.6-.5-3.1-1.6-5.6-3.1-7.3-2.1-2.4-5.4-3.7-9.8-3.7h-.1c-3.5 0-8.3 1-11.3 5.5l-7.3-4.9c4.1-6.1 10.7-9.4 18.7-9.4h.2c13.3.1 21.2 8.2 22 22.5.5.2.9.4 1.3.6 6.2 2.9 10.8 7.3 13.1 12.8 3.3 7.6 3.6 20-6.4 29.8C67.3 96.5 58 99.9 44.7 100zm4.2-48.7c-1 0-2 0-3.1.1-7.6.4-12.4 3.9-12.1 8.9.3 5.2 6 7.7 11.6 7.4 5.1-.3 11.7-2.3 12.9-15.5-2.9-.6-6-.9-9.3-.9z"/></svg>