<svg xmlns="http://www.w3.org/2000/svg" viewBox="0 0 100 100" style="enable-background:new 0 0 100 100" xml:space="preserve"><path d="M82.5 21.4c-.7-.3-1.3-.7-2-1.1-1.9-1.2-3.5-2.7-5.1-4.3-3.8-4.3-5.2-8.7-5.7-11.8-.3-2.6-.1-4.2-.1-4.2H52.4V69.4c-.4 4.8-3.1 9.2-7.3 11.6-2.2 1.2-4.6 1.9-7.1 1.9-8 0-14.5-6.5-14.5-14.6S30 53.7 38 53.7c1.5 0 3 .2 4.5.7V36.9c-8.8-1.1-17.8 1.5-24.6 7.2-3 2.6-5.4 5.6-7.4 9.1-.7 1.4-3.5 6.4-3.8 14.6-.2 4.6 1.2 9.4 1.8 11.4.4 1.2 2 5.1 4.7 8.5 2.1 2.7 4.6 5.1 7.4 7 8.3 5.6 17.5 5.3 17.5 5.3 1.6-.1 6.9 0 13-2.9 6.7-3.2 10.6-7.9 10.6-7.9 2.4-2.8 4.4-6.1 5.8-9.6 1.6-4.1 2.1-9 2.1-10.9V33.4c.2.1 3 2 3 2s4 2.6 10.2 4.2c4.5 1.2 10.5 1.4 10.5 1.4V24c-2.1.2-6.4-.4-10.8-2.6z"/></svg>