<svg xmlns="http://www.w3.org/2000/svg" viewBox="0 0 56 56"><path d="m55.66 30.26-4.61-7.18a2.29 2.29 0 0 0-1.91-1h-6.89v-8.77a2 2 0 0 0-2-2H20.63v2h19.65v26.43H20.49a3.91 3.91 0 0 0-7.58 0h-2.1v-4.91h-2v4.91a2 2 0 0 0 2 2h2.1a3.91 3.91 0 0 0 7.58 0h23.86a3.91 3.91 0 0 0 7.58 0h1.82A2.22 2.22 0 0 0 56 39.53v-8.11a2.18 2.18 0 0 0-.34-1.16Zm-39 12.43a2 2 0 1 1 2-2 2 2 0 0 1-1.96 2Zm31.44 0a2 2 0 1 1 2-2 2 2 0 0 1-1.96 2Zm5.9-3.16a.27.27 0 0 1-.29.21h-1.78a3.91 3.91 0 0 0-7.58 0h-2.1V24h6.89a.29.29 0 0 1 .25.13L54 31.32a.19.19 0 0 1 0 .1Z"/><path d="M7.86 17.15h9.82v1.96H7.86zM3.93 23.04h9.82V25H3.93zM0 28.94h9.82v1.96H0zM25.54 31.2a7.18 7.18 0 1 0-7.17-7.2 7.19 7.19 0 0 0 7.17 7.2Zm0-12.57A5.4 5.4 0 1 1 20.15 24a5.4 5.4 0 0 1 5.39-5.37Z"/><path d="m28.5 25.85-2.16-2.16v-3.65h-1.59v4.31l2.62 2.63 1.13-1.13z"/></svg>