<svg version="1.1" id="layer" xmlns="http://www.w3.org/2000/svg" x="0" y="0" viewBox="-153 -46 652 652" style="enable-background:new -153 -46 652 652" xml:space="preserve"><style>.st0{display:none}</style><path d="m93.8 255.6-.8.7-.1 72 .7.7h19.9l.7-.7.1-72-.7-.7H93.8zm9.5-33.2L90 235.8v1.5l13.3 13.3h1.5l13.4-13.3v-1.5l-13.4-13.4h-1.5zm-160.6-1.5-.7.7V278c0 20-10.7 29.6-26 29.6-15.2 0-25.8-9.6-25.8-29.6v-56.3l-.8-.7h-20l-.7.7V281c0 30.4 19.2 48.2 47.4 48.2 27.9 0 47.6-17.8 47.6-48.2v-59.3l-.7-.7h-20.3zm112.3 0-.8.7v69.6l-51-69.6-1.5-.7h-20l-.8.7v106.7l.8.7H1.6l.8-.7v-69.6l51.3 69.6 1.5.7H75l.7-.7V221.6l-.7-.7H55zm98.4 21.6h14.2c19.3 0 32.6 13.9 32.6 32.5 0 18.5-13.4 32.5-32.7 32.5h-14.2l.1-65zm-20.8-21.6-.7.7v106.7l.7.7h34.9c31.9 0 54.9-25.5 54.9-54.1s-23-54.1-54.9-54.1h-34.9zm128.1 63.7 11.9-34.8 11.9 34.8.3 1.3h-24.5l.4-1.3zm1.5-63.7-.8.7-39.3 106.7.8.7h23l.8-.7 6.8-21 38.3.1 6.8 21 .8.7h23l.8-.7-39.3-106.7-.8-.7h-20.9zm116.8 0-.7.7-24.1 37-24-37-.7-.7h-20.8l-.7.7 35.6 58.5v48.2l.8.7h19.9l.8-.7v-48.2l35.6-58.5-.7-.7h-21zm24.7 28.9c0 28.9 43.8 28.1 43.8 45.9 0 7.4-5.2 11.9-12.6 11.9-5.9 0-12.6-3-16.3-12.9h-1.5L400 306.1c5.2 14.8 19.3 23 34.9 23 20 0 33.7-15.6 33.7-33.3 0-34.1-42.6-34.1-42.6-45.9 0-4.5 2.2-7.4 7.4-7.4 3.7 0 8.2 2.2 11.4 6.7h1.5l16-11.9c-8.2-11.1-16.3-16.3-28.9-16.3-16.5-.1-29.7 11.8-29.7 28.8z" id="Layer_1"/></svg>