<svg width="16" height="16" fill="none" xmlns="http://www.w3.org/2000/svg"><mask id="a" fill="#fff"><path d="M10.846 6.821c.314.315.488.734.488 1.18 0 .444-.174.863-.488 1.178l.471.471C11.757 9.21 12 8.623 12 8a2.32 2.32 0 0 0-.683-1.65l-.471.471Z"/></mask><path d="M10.846 6.821c.314.315.488.734.488 1.18 0 .444-.174.863-.488 1.178l.471.471C11.757 9.21 12 8.623 12 8a2.32 2.32 0 0 0-.683-1.65l-.471.471Z" fill="#fff"/><path d="m10.846 6.821-.707-.707-.707.707.706.707.708-.707Zm0 2.358-.708-.707-.706.707.707.707.707-.707Zm.471.471-.707.707.707.708.707-.708-.707-.707Zm0-3.3.707-.707-.707-.707-.707.707.707.707Zm-1.179 1.178a.657.657 0 0 1 .196.472h2c0-.71-.279-1.383-.78-1.885l-1.416 1.413Zm.196.472c0 .18-.068.344-.196.472l1.415 1.414c.502-.503.78-1.176.78-1.886h-2Zm-.195 1.886.47.471 1.415-1.414-.471-.471-1.414 1.414Zm1.885.47A3.318 3.318 0 0 0 13 8h-2c0 .358-.137.69-.39.943l1.414 1.414ZM13 8a3.32 3.32 0 0 0-.976-2.357L10.61 7.057c.253.254.39.585.39.943h2Zm-2.39-2.357-.471.471 1.414 1.415.471-.472-1.414-1.414Z" fill="#fff" mask="url(#a)"/><path d="m12.731 4.936-.471.471A3.643 3.643 0 0 1 13.334 8c0 .98-.382 1.9-1.074 2.593l.471.471A4.304 4.304 0 0 0 14.001 8c0-1.157-.451-2.245-1.27-3.064Z" fill="#fff"/><path d="m14.145 3.521-.471.472A5.63 5.63 0 0 1 15.334 8a5.63 5.63 0 0 1-1.66 4.007l.471.471A6.291 6.291 0 0 0 16 8a6.291 6.291 0 0 0-1.855-4.479ZM9.605.14a.658.658 0 0 0-.718.113L2.967 5.58a.333.333 0 0 1-.223.086H.667A.667.667 0 0 0 0 6.333v3.334c0 .367.299.666.667.666h2.077c.083 0 .162.03.223.086l5.92 5.328a.66.66 0 0 0 .717.114.66.66 0 0 0 .396-.61V.748A.66.66 0 0 0 9.605.14Zm-.272 15.112-5.92-5.329a.998.998 0 0 0-.669-.256H.667V6.333h2.077a.997.997 0 0 0 .669-.256L9.333.748v14.504Z" fill="#fff"/></svg>